<?xml version="1.0" standalone="no"?><svg xmlns="http://www.w3.org/2000/svg" viewBox="0 0 1440 320"><path fill="#0ce14c" fill-opacity="1" d="M0,96L26.7,90.7C53.3,85,107,75,160,80C213.3,85,267,107,320,122.7C373.3,139,427,149,480,165.3C533.3,181,587,203,640,202.7C693.3,203,747,181,800,160C853.3,139,907,117,960,133.3C1013.3,149,1067,203,1120,224C1173.3,245,1227,235,1280,202.7C1333.3,171,1387,117,1413,90.7L1440,64L1440,320L1413.3,320C1386.7,320,1333,320,1280,320C1226.7,320,1173,320,1120,320C1066.7,320,1013,320,960,320C906.7,320,853,320,800,320C746.7,320,693,320,640,320C586.7,320,533,320,480,320C426.7,320,373,320,320,320C266.7,320,213,320,160,320C106.7,320,53,320,27,320L0,320Z"></path></svg>